<?xml version="1.0" encoding="us-ascii" standalone="no"?><svg xmlns="http://www.w3.org/2000/svg" xmlns:xlink="http://www.w3.org/1999/xlink" contentStyleType="text/css" height="1307px" preserveAspectRatio="none" style="width:1492px;height:1307px;background:#FEFEFE;" version="1.1" viewBox="0 0 1492 1307" width="1492px" zoomAndPan="magnify"><defs/><g><rect fill="#FEFEFE" height="1307" style="stroke:none;stroke-width:1.0;" width="1492" x="0" y="0"/><rect fill="#F3E5F5" height="1295.5781" style="stroke:#181818;stroke-width:0.5;" width="131" x="259.5" y="6"/><text fill="#000000" font-family="sans-serif" font-size="13" font-weight="bold" lengthAdjust="spacing" textLength="40.2188" x="304.8906" y="18.0669">&#25509;&#21475;&#23618;</text><rect fill="#FCE4EC" height="1295.5781" style="stroke:#181818;stroke-width:0.5;" width="691" x="468" y="6"/><text fill="#000000" font-family="sans-serif" font-size="13" font-weight="bold" lengthAdjust="spacing" textLength="53.625" x="786.6875" y="18.0669">&#36807;&#28388;&#24341;&#25806;</text><rect fill="#FFF3E0" height="1295.5781" style="stroke:#181818;stroke-width:0.5;" width="145" x="1161" y="6"/><text fill="#000000" font-family="sans-serif" font-size="13" font-weight="bold" lengthAdjust="spacing" textLength="40.2188" x="1210.8906" y="18.0669">&#20462;&#34917;&#23618;</text><rect fill="#E8F5E9" height="1295.5781" style="stroke:#181818;stroke-width:0.5;" width="141" x="1308" y="6"/><text fill="#000000" font-family="sans-serif" font-size="13" font-weight="bold" lengthAdjust="spacing" textLength="53.625" x="1351.6875" y="18.0669">&#25551;&#36848;&#31526;&#23618;</text><rect fill="#FFFFFF" height="1091.8516" style="stroke:#181818;stroke-width:1.0;" width="10" x="320" y="112.4297"/><rect fill="#FFFFFF" height="733.3203" style="stroke:#181818;stroke-width:1.0;" width="10" x="502" y="434.8281"/><rect fill="#FFFFFF" height="29.1328" style="stroke:#181818;stroke-width:1.0;" width="10" x="673" y="479.0938"/><rect fill="#FFFFFF" height="167.9297" style="stroke:#181818;stroke-width:1.0;" width="10" x="860.5" y="222.9609"/><rect fill="#FFFFFF" height="572.5234" style="stroke:#181818;stroke-width:1.0;" width="10" x="860.5" y="566.4922"/><rect fill="#FFFFFF" height="133.6641" style="stroke:#181818;stroke-width:1.0;" width="10" x="1082.5" y="969.2188"/><rect fill="#FFFFFF" height="29.1328" style="stroke:#181818;stroke-width:1.0;" width="10" x="1228.5" y="1037.6172"/><rect fill="none" height="991.4531" style="stroke:#000000;stroke-width:1.5;" width="1221.5" x="253.5" y="184.6953"/><rect fill="none" height="249.1953" style="stroke:#000000;stroke-width:1.5;" width="689" x="776" y="624.625"/><rect fill="none" height="103.5313" style="stroke:#000000;stroke-width:1.5;" width="669" x="786" y="763.2891"/><rect fill="none" height="179.9297" style="stroke:#000000;stroke-width:1.5;" width="536" x="786" y="930.9531"/><rect fill="none" height="90.5313" style="stroke:#000000;stroke-width:1.5;" width="302" x="1010" y="984.2188"/><line style="stroke:#181818;stroke-width:0.5;stroke-dasharray:5.0,5.0;" x1="22" x2="22" y1="81.2969" y2="1222.2813"/><line style="stroke:#181818;stroke-width:0.5;stroke-dasharray:5.0,5.0;" x1="324.5" x2="324.5" y1="81.2969" y2="1222.2813"/><line style="stroke:#181818;stroke-width:0.5;stroke-dasharray:5.0,5.0;" x1="507" x2="507" y1="81.2969" y2="1222.2813"/><line style="stroke:#181818;stroke-width:0.5;stroke-dasharray:5.0,5.0;" x1="678" x2="678" y1="81.2969" y2="1222.2813"/><line style="stroke:#181818;stroke-width:0.5;stroke-dasharray:5.0,5.0;" x1="758" x2="758" y1="81.2969" y2="1222.2813"/><line style="stroke:#181818;stroke-width:0.5;stroke-dasharray:5.0,5.0;" x1="865" x2="865" y1="81.2969" y2="1222.2813"/><line style="stroke:#181818;stroke-width:0.5;stroke-dasharray:5.0,5.0;" x1="1087" x2="1087" y1="81.2969" y2="1222.2813"/><line style="stroke:#181818;stroke-width:0.5;stroke-dasharray:5.0,5.0;" x1="1233" x2="1233" y1="81.2969" y2="1222.2813"/><line style="stroke:#181818;stroke-width:0.5;stroke-dasharray:5.0,5.0;" x1="1378" x2="1378" y1="81.2969" y2="1222.2813"/><text fill="#000000" font-family="sans-serif" font-size="14" lengthAdjust="spacing" textLength="28" x="5" y="77.9951">&#29992;&#25143;</text><ellipse cx="22" cy="13.5" fill="#E2E2F0" rx="8" ry="8" style="stroke:#181818;stroke-width:0.5;"/><path d="M22,21.5 L22,48.5 M9,29.5 L35,29.5 M22,48.5 L9,63.5 M22,48.5 L35,63.5 " fill="none" style="stroke:#181818;stroke-width:0.5;"/><text fill="#000000" font-family="sans-serif" font-size="14" lengthAdjust="spacing" textLength="28" x="5" y="1234.2764">&#29992;&#25143;</text><ellipse cx="22" cy="1246.0781" fill="#E2E2F0" rx="8" ry="8" style="stroke:#181818;stroke-width:0.5;"/><path d="M22,1254.0781 L22,1281.0781 M9,1262.0781 L35,1262.0781 M22,1281.0781 L9,1296.0781 M22,1281.0781 L35,1296.0781 " fill="none" style="stroke:#181818;stroke-width:0.5;"/><rect fill="#E3F2FD" height="46.5938" rx="2.5" ry="2.5" style="stroke:#2196F3;stroke-width:0.5;" width="123" x="263.5" y="33.7031"/><text fill="#000000" font-family="sans-serif" font-size="14" lengthAdjust="spacing" textLength="109" x="270.5" y="53.6982">dynamic_debug</text><text fill="#000000" font-family="sans-serif" font-size="14" lengthAdjust="spacing" textLength="43" x="303.5" y="69.9951">procfs</text><rect fill="#E3F2FD" height="46.5938" rx="2.5" ry="2.5" style="stroke:#2196F3;stroke-width:0.5;" width="123" x="263.5" y="1221.2813"/><text fill="#000000" font-family="sans-serif" font-size="14" lengthAdjust="spacing" textLength="109" x="270.5" y="1241.2764">dynamic_debug</text><text fill="#000000" font-family="sans-serif" font-size="14" lengthAdjust="spacing" textLength="43" x="303.5" y="1257.5732">procfs</text><rect fill="#E3F2FD" height="30.2969" rx="2.5" ry="2.5" style="stroke:#2196F3;stroke-width:0.5;" width="70" x="472" y="50"/><text fill="#000000" font-family="sans-serif" font-size="14" lengthAdjust="spacing" textLength="56" x="479" y="69.9951">&#35268;&#21017;&#36861;&#21152;</text><rect fill="#E3F2FD" height="30.2969" rx="2.5" ry="2.5" style="stroke:#2196F3;stroke-width:0.5;" width="70" x="472" y="1221.2813"/><text fill="#000000" font-family="sans-serif" font-size="14" lengthAdjust="spacing" textLength="56" x="479" y="1241.2764">&#35268;&#21017;&#36861;&#21152;</text><rect fill="#E3F2FD" height="30.2969" rx="2.5" ry="2.5" style="stroke:#2196F3;stroke-width:0.5;" width="84" x="636" y="50"/><text fill="#000000" font-family="sans-serif" font-size="14" lengthAdjust="spacing" textLength="70" x="643" y="69.9951">&#19977;&#36890;&#36947;&#32034;&#24341;</text><rect fill="#E3F2FD" height="30.2969" rx="2.5" ry="2.5" style="stroke:#2196F3;stroke-width:0.5;" width="84" x="636" y="1221.2813"/><text fill="#000000" font-family="sans-serif" font-size="14" lengthAdjust="spacing" textLength="70" x="643" y="1241.2764">&#19977;&#36890;&#36947;&#32034;&#24341;</text><rect fill="#E3F2FD" height="30.2969" rx="2.5" ry="2.5" style="stroke:#2196F3;stroke-width:0.5;" width="56" x="730" y="50"/><text fill="#000000" font-family="sans-serif" font-size="14" lengthAdjust="spacing" textLength="42" x="737" y="69.9951">&#35268;&#21017;&#38142;</text><rect fill="#E3F2FD" height="30.2969" rx="2.5" ry="2.5" style="stroke:#2196F3;stroke-width:0.5;" width="56" x="730" y="1221.2813"/><text fill="#000000" font-family="sans-serif" font-size="14" lengthAdjust="spacing" textLength="42" x="737" y="1241.2764">&#35268;&#21017;&#38142;</text><rect fill="#E3F2FD" height="30.2969" rx="2.5" ry="2.5" style="stroke:#2196F3;stroke-width:0.5;" width="139" x="796" y="50"/><text fill="#000000" font-family="sans-serif" font-size="14" lengthAdjust="spacing" textLength="125" x="803" y="69.9951">&#22686;&#37327;&#21047;&#26032; / &#20840;&#37327;&#37325;&#31639;</text><rect fill="#E3F2FD" height="30.2969" rx="2.5" ry="2.5" style="stroke:#2196F3;stroke-width:0.5;" width="139" x="796" y="1221.2813"/><text fill="#000000" font-family="sans-serif" font-size="14" lengthAdjust="spacing" textLength="125" x="803" y="1241.2764">&#22686;&#37327;&#21047;&#26032; / &#20840;&#37327;&#37325;&#31639;</text><rect fill="#E3F2FD" height="30.2969" rx="2.5" ry="2.5" style="stroke:#2196F3;stroke-width:0.5;" width="135" x="1020" y="50"/><text fill="#000000" font-family="sans-serif" font-size="14" lengthAdjust="spacing" textLength="121" x="1027" y="69.9951">MODULE_STATES</text><rect fill="#E3F2FD" height="30.2969" rx="2.5" ry="2.5" style="stroke:#2196F3;stroke-width:0.5;" width="135" x="1020" y="1221.2813"/><text fill="#000000" font-family="sans-serif" font-size="14" lengthAdjust="spacing" textLength="121" x="1027" y="1241.2764">MODULE_STATES</text><rect fill="#E3F2FD" height="46.5938" rx="2.5" ry="2.5" style="stroke:#2196F3;stroke-width:0.5;" width="137" x="1165" y="33.7031"/><text fill="#000000" font-family="sans-serif" font-size="14" lengthAdjust="spacing" textLength="56" x="1205.5" y="53.6982">&#27169;&#22359;&#20462;&#34917;</text><text fill="#000000" font-family="sans-serif" font-size="14" lengthAdjust="spacing" textLength="123" x="1172" y="69.9951">StaticKey &#25209;&#37327;&#20462;&#34917;</text><rect fill="#E3F2FD" height="46.5938" rx="2.5" ry="2.5" style="stroke:#2196F3;stroke-width:0.5;" width="137" x="1165" y="1221.2813"/><text fill="#000000" font-family="sans-serif" font-size="14" lengthAdjust="spacing" textLength="56" x="1205.5" y="1241.2764">&#27169;&#22359;&#20462;&#34917;</text><text fill="#000000" font-family="sans-serif" font-size="14" lengthAdjust="spacing" textLength="123" x="1172" y="1257.5732">StaticKey &#25209;&#37327;&#20462;&#34917;</text><rect fill="#E3F2FD" height="30.2969" rx="2.5" ry="2.5" style="stroke:#2196F3;stroke-width:0.5;" width="133" x="1312" y="50"/><text fill="#000000" font-family="sans-serif" font-size="14" lengthAdjust="spacing" textLength="119" x="1319" y="69.9951">DebugDescriptor</text><rect fill="#E3F2FD" height="30.2969" rx="2.5" ry="2.5" style="stroke:#2196F3;stroke-width:0.5;" width="133" x="1312" y="1221.2813"/><text fill="#000000" font-family="sans-serif" font-size="14" lengthAdjust="spacing" textLength="119" x="1319" y="1241.2764">DebugDescriptor</text><rect fill="#FFFFFF" height="1091.8516" style="stroke:#181818;stroke-width:1.0;" width="10" x="320" y="112.4297"/><rect fill="#FFFFFF" height="733.3203" style="stroke:#181818;stroke-width:1.0;" width="10" x="502" y="434.8281"/><rect fill="#FFFFFF" height="29.1328" style="stroke:#181818;stroke-width:1.0;" width="10" x="673" y="479.0938"/><rect fill="#FFFFFF" height="167.9297" style="stroke:#181818;stroke-width:1.0;" width="10" x="860.5" y="222.9609"/><rect fill="#FFFFFF" height="572.5234" style="stroke:#181818;stroke-width:1.0;" width="10" x="860.5" y="566.4922"/><rect fill="#FFFFFF" height="133.6641" style="stroke:#181818;stroke-width:1.0;" width="10" x="1082.5" y="969.2188"/><rect fill="#FFFFFF" height="29.1328" style="stroke:#181818;stroke-width:1.0;" width="10" x="1228.5" y="1037.6172"/><polygon fill="#181818" points="308,108.4297,318,112.4297,308,116.4297,312,112.4297" style="stroke:#181818;stroke-width:1.0;"/><line style="stroke:#181818;stroke-width:1.0;" x1="22" x2="314" y1="112.4297" y2="112.4297"/><text fill="#000000" font-family="sans-serif" font-size="13" lengthAdjust="spacing" textLength="279" x="29" y="107.3638">echo "module=mm +trace" | "+pfl" | "del 0"</text><line style="stroke:#181818;stroke-width:1.0;" x1="330" x2="372" y1="156.6953" y2="156.6953"/><line style="stroke:#181818;stroke-width:1.0;" x1="372" x2="372" y1="156.6953" y2="169.6953"/><line style="stroke:#181818;stroke-width:1.0;" x1="331" x2="372" y1="169.6953" y2="169.6953"/><polygon fill="#181818" points="341,165.6953,331,169.6953,341,173.6953,337,169.6953" style="stroke:#181818;stroke-width:1.0;"/><text fill="#000000" font-family="sans-serif" font-size="13" lengthAdjust="spacing" textLength="52" x="337" y="136.4966">&#35299;&#26512;&#21629;&#20196;</text><text fill="#000000" font-family="sans-serif" font-size="13" lengthAdjust="spacing" textLength="158" x="337" y="151.6294">selector + action + flags</text><path d="M253.5,184.6953 L317.5,184.6953 L317.5,191.8281 L307.5,201.8281 L253.5,201.8281 L253.5,184.6953 " fill="#EEEEEE" style="stroke:#000000;stroke-width:1.5;"/><rect fill="none" height="991.4531" style="stroke:#000000;stroke-width:1.5;" width="1221.5" x="253.5" y="184.6953"/><text fill="#000000" font-family="sans-serif" font-size="13" font-weight="bold" lengthAdjust="spacing" textLength="19" x="268.5" y="197.7622">alt</text><text fill="#000000" font-family="sans-serif" font-size="11" font-weight="bold" lengthAdjust="spacing" textLength="233.75" x="332.5" y="196.9058">[&#21024;&#38500;/&#28165;&#31354; (del &lt;id&gt; | clear) &#8594; &#20840;&#37327;&#37325;&#31639;]</text><polygon fill="#181818" points="848.5,218.9609,858.5,222.9609,848.5,226.9609,852.5,222.9609" style="stroke:#181818;stroke-width:1.0;"/><line style="stroke:#181818;stroke-width:1.0;" x1="330" x2="854.5" y1="222.9609" y2="222.9609"/><text fill="#000000" font-family="sans-serif" font-size="13" lengthAdjust="spacing" textLength="155" x="337" y="217.895">remove/clear &#8594; &#20840;&#37327;&#37325;&#31639;</text><path d="M748,235.9609 L748,290.9609 L982,290.9609 L982,245.9609 L972,235.9609 L748,235.9609 " fill="#FEFFDD" style="stroke:#181818;stroke-width:0.5;"/><path d="M972,235.9609 L972,245.9609 L982,245.9609 L972,235.9609 " fill="#FEFFDD" style="stroke:#181818;stroke-width:0.5;"/><text fill="#000000" font-family="sans-serif" font-size="13" lengthAdjust="spacing" textLength="91" x="754" y="253.0278">&#37325;&#25918;&#25972;&#26465;&#35268;&#21017;&#38142;</text><text fill="#000000" font-family="sans-serif" font-size="13" lengthAdjust="spacing" textLength="213" x="754" y="268.1606">(last-match-wins, log/trace &#21452;&#32500;&#24230;</text><text fill="#000000" font-family="sans-serif" font-size="13" lengthAdjust="spacing" textLength="106" x="754" y="283.2935">+ flags &#39034;&#24207;&#27169;&#25311;)</text><polygon fill="#181818" points="1366.5,313.4922,1376.5,317.4922,1366.5,321.4922,1370.5,317.4922" style="stroke:#181818;stroke-width:1.0;"/><line style="stroke:#181818;stroke-width:1.0;" x1="870.5" x2="1372.5" y1="317.4922" y2="317.4922"/><text fill="#000000" font-family="sans-serif" font-size="13" lengthAdjust="spacing" textLength="228" x="877.5" y="312.4263">&#26356;&#26032; log/trace &#21452;&#26631;&#24535; + format_flags</text><polygon fill="#181818" points="1075.5,357.7578,1085.5,361.7578,1075.5,365.7578,1079.5,361.7578" style="stroke:#181818;stroke-width:1.0;"/><line style="stroke:#181818;stroke-width:1.0;" x1="870.5" x2="1081.5" y1="361.7578" y2="361.7578"/><text fill="#000000" font-family="sans-serif" font-size="13" lengthAdjust="spacing" textLength="124" x="877.5" y="341.5591">&#26356;&#26032; enabled_count</text><text fill="#000000" font-family="sans-serif" font-size="13" lengthAdjust="spacing" textLength="128" x="877.5" y="356.6919">0&#8596;1 &#32763;&#36716; &#8594; &#35302;&#21457;&#20462;&#34917;</text><polygon fill="#181818" points="341,386.8906,331,390.8906,341,394.8906,337,390.8906" style="stroke:#181818;stroke-width:1.0;"/><line style="stroke:#181818;stroke-width:1.0;stroke-dasharray:2.0,2.0;" x1="335" x2="864.5" y1="390.8906" y2="390.8906"/><text fill="#000000" font-family="sans-serif" font-size="13" lengthAdjust="spacing" textLength="26" x="347" y="385.8247">&#23436;&#25104;</text><line style="stroke:#000000;stroke-width:1.0;stroke-dasharray:2.0,2.0;" x1="253.5" x2="1475" y1="399.8906" y2="399.8906"/><text fill="#000000" font-family="sans-serif" font-size="11" font-weight="bold" lengthAdjust="spacing" textLength="179.75" x="258.5" y="410.1011">[&#36861;&#21152;&#35268;&#21017; (append) &#8594; &#22686;&#37327;&#21047;&#26032;]</text><polygon fill="#181818" points="490,430.8281,500,434.8281,490,438.8281,494,434.8281" style="stroke:#181818;stroke-width:1.0;"/><line style="stroke:#181818;stroke-width:1.0;" x1="330" x2="496" y1="434.8281" y2="434.8281"/><text fill="#000000" font-family="sans-serif" font-size="13" lengthAdjust="spacing" textLength="143" x="337" y="429.7622">append_dyndbg_rule()</text><polygon fill="#181818" points="661,475.0938,671,479.0938,661,483.0938,665,479.0938" style="stroke:#181818;stroke-width:1.0;"/><line style="stroke:#181818;stroke-width:1.0;" x1="512" x2="667" y1="479.0938" y2="479.0938"/><text fill="#000000" font-family="sans-serif" font-size="13" lengthAdjust="spacing" textLength="91" x="519" y="458.895">&#19977;&#36890;&#36947;&#20505;&#36873;&#25910;&#38598;</text><text fill="#000000" font-family="sans-serif" font-size="13" lengthAdjust="spacing" textLength="142" x="519" y="474.0278">&#31934;&#30830; &#8594; &#27573;&#31934;&#30830; &#8594; &#36890;&#37197;&#31526;</text><polygon fill="#181818" points="523,504.2266,513,508.2266,523,512.2266,519,508.2266" style="stroke:#181818;stroke-width:1.0;"/><line style="stroke:#181818;stroke-width:1.0;stroke-dasharray:2.0,2.0;" x1="517" x2="677" y1="508.2266" y2="508.2266"/><text fill="#000000" font-family="sans-serif" font-size="13" lengthAdjust="spacing" textLength="91" x="529" y="503.1606">&#21629;&#20013;&#25551;&#36848;&#31526;&#38598;&#21512;</text><polygon fill="#181818" points="746,533.3594,756,537.3594,746,541.3594,750,537.3594" style="stroke:#181818;stroke-width:1.0;"/><line style="stroke:#181818;stroke-width:1.0;" x1="512" x2="752" y1="537.3594" y2="537.3594"/><text fill="#000000" font-family="sans-serif" font-size="13" lengthAdjust="spacing" textLength="144" x="519" y="532.2935">&#36861;&#21152;&#35268;&#21017;&#26465;&#30446; (&#38142;&#23614;&#24517;&#32988;)</text><polygon fill="#181818" points="848.5,562.4922,858.5,566.4922,848.5,570.4922,852.5,566.4922" style="stroke:#181818;stroke-width:1.0;"/><line style="stroke:#181818;stroke-width:1.0;" x1="512" x2="854.5" y1="566.4922" y2="566.4922"/><text fill="#000000" font-family="sans-serif" font-size="13" lengthAdjust="spacing" textLength="144" x="519" y="561.4263">&#22686;&#37327;&#21047;&#26032; (&#19981;&#37325;&#36305;&#35268;&#21017;&#38142;)</text><rect fill="#EEEEEE" height="3" style="stroke:#EEEEEE;stroke-width:1.0;" width="1485" x="0" y="595.0586"/><line style="stroke:#000000;stroke-width:1.0;" x1="0" x2="1485" y1="595.0586" y2="595.0586"/><line style="stroke:#000000;stroke-width:1.0;" x1="0" x2="1485" y1="598.0586" y2="598.0586"/><rect fill="#EEEEEE" height="23.1328" style="stroke:#000000;stroke-width:2.0;" width="118.4375" x="683.2813" y="584.4922"/><text fill="#000000" font-family="sans-serif" font-size="13" font-weight="bold" lengthAdjust="spacing" textLength="99.4375" x="689.2813" y="600.5591">&#38454;&#27573;1: &#22686;&#37327;&#35009;&#20915;</text><path d="M776,624.625 L853,624.625 L853,631.7578 L843,641.7578 L776,641.7578 L776,624.625 " fill="#EEEEEE" style="stroke:#000000;stroke-width:1.5;"/><rect fill="none" height="249.1953" style="stroke:#000000;stroke-width:1.5;" width="689" x="776" y="624.625"/><text fill="#000000" font-family="sans-serif" font-size="13" font-weight="bold" lengthAdjust="spacing" textLength="32" x="791" y="637.6919">loop</text><text fill="#000000" font-family="sans-serif" font-size="11" font-weight="bold" lengthAdjust="spacing" textLength="89.4063" x="868" y="636.8354">[&#27599;&#20010;&#21629;&#20013;&#25551;&#36848;&#31526;]</text><line style="stroke:#181818;stroke-width:1.0;" x1="870.5" x2="912.5" y1="678.0234" y2="678.0234"/><line style="stroke:#181818;stroke-width:1.0;" x1="912.5" x2="912.5" y1="678.0234" y2="691.0234"/><line style="stroke:#181818;stroke-width:1.0;" x1="871.5" x2="912.5" y1="691.0234" y2="691.0234"/><polygon fill="#181818" points="881.5,687.0234,871.5,691.0234,881.5,695.0234,877.5,691.0234" style="stroke:#181818;stroke-width:1.0;"/><text fill="#000000" font-family="sans-serif" font-size="13" lengthAdjust="spacing" textLength="91" x="877.5" y="657.8247">&#22686;&#37327;&#24212;&#29992;&#26032;&#35268;&#21017;</text><text fill="#000000" font-family="sans-serif" font-size="13" lengthAdjust="spacing" textLength="198" x="877.5" y="672.9575">log/trace &#21508;&#33258;&#29420;&#31435;, &#20854;&#20313;&#32500;&#24230;&#20445;&#25345;</text><line style="stroke:#181818;stroke-width:1.0;" x1="870.5" x2="912.5" y1="735.2891" y2="735.2891"/><line style="stroke:#181818;stroke-width:1.0;" x1="912.5" x2="912.5" y1="735.2891" y2="748.2891"/><line style="stroke:#181818;stroke-width:1.0;" x1="871.5" x2="912.5" y1="748.2891" y2="748.2891"/><polygon fill="#181818" points="881.5,744.2891,871.5,748.2891,881.5,752.2891,877.5,748.2891" style="stroke:#181818;stroke-width:1.0;"/><text fill="#000000" font-family="sans-serif" font-size="13" lengthAdjust="spacing" textLength="86" x="877.5" y="715.0903">flags &#23614;&#37096;&#25805;&#20316;</text><text fill="#000000" font-family="sans-serif" font-size="13" lengthAdjust="spacing" textLength="141" x="877.5" y="730.2231">set &#8594; clear &#8594; override</text><path d="M786,763.2891 L850,763.2891 L850,770.4219 L840,780.4219 L786,780.4219 L786,763.2891 " fill="#EEEEEE" style="stroke:#000000;stroke-width:1.5;"/><rect fill="none" height="103.5313" style="stroke:#000000;stroke-width:1.5;" width="669" x="786" y="763.2891"/><text fill="#000000" font-family="sans-serif" font-size="13" font-weight="bold" lengthAdjust="spacing" textLength="19" x="801" y="776.356">alt</text><text fill="#000000" font-family="sans-serif" font-size="11" font-weight="bold" lengthAdjust="spacing" textLength="78.0625" x="865" y="775.4995">[&#29366;&#24577;&#21457;&#29983;&#25913;&#21464;]</text><polygon fill="#181818" points="1366.5,812.6875,1376.5,816.6875,1366.5,820.6875,1370.5,816.6875" style="stroke:#181818;stroke-width:1.0;"/><line style="stroke:#181818;stroke-width:1.0;" x1="870.5" x2="1372.5" y1="816.6875" y2="816.6875"/><text fill="#000000" font-family="sans-serif" font-size="13" lengthAdjust="spacing" textLength="116" x="877.5" y="796.4888">&#32763;&#36716; log/trace &#26631;&#24535;</text><text fill="#000000" font-family="sans-serif" font-size="13" lengthAdjust="spacing" textLength="110" x="877.5" y="811.6216">&#20889;&#20837; format_flags</text><line style="stroke:#181818;stroke-width:1.0;" x1="870.5" x2="912.5" y1="845.8203" y2="845.8203"/><line style="stroke:#181818;stroke-width:1.0;" x1="912.5" x2="912.5" y1="845.8203" y2="858.8203"/><line style="stroke:#181818;stroke-width:1.0;" x1="871.5" x2="912.5" y1="858.8203" y2="858.8203"/><polygon fill="#181818" points="881.5,854.8203,871.5,858.8203,881.5,862.8203,877.5,858.8203" style="stroke:#181818;stroke-width:1.0;"/><text fill="#000000" font-family="sans-serif" font-size="13" lengthAdjust="spacing" textLength="101" x="877.5" y="840.7544">&#35760;&#24405;&#27169;&#22359;&#32423; delta</text><rect fill="#EEEEEE" height="3" style="stroke:#EEEEEE;stroke-width:1.0;" width="1485" x="0" y="901.3867"/><line style="stroke:#000000;stroke-width:1.0;" x1="0" x2="1485" y1="901.3867" y2="901.3867"/><line style="stroke:#000000;stroke-width:1.0;" x1="0" x2="1485" y1="904.3867" y2="904.3867"/><rect fill="#EEEEEE" height="23.1328" style="stroke:#000000;stroke-width:2.0;" width="118.4375" x="683.2813" y="890.8203"/><text fill="#000000" font-family="sans-serif" font-size="13" font-weight="bold" lengthAdjust="spacing" textLength="99.4375" x="689.2813" y="906.8872">&#38454;&#27573;2: &#22686;&#37327;&#24212;&#29992;</text><path d="M786,930.9531 L863,930.9531 L863,938.0859 L853,948.0859 L786,948.0859 L786,930.9531 " fill="#EEEEEE" style="stroke:#000000;stroke-width:1.5;"/><rect fill="none" height="179.9297" style="stroke:#000000;stroke-width:1.5;" width="536" x="786" y="930.9531"/><text fill="#000000" font-family="sans-serif" font-size="13" font-weight="bold" lengthAdjust="spacing" textLength="32" x="801" y="944.02">loop</text><text fill="#000000" font-family="sans-serif" font-size="11" font-weight="bold" lengthAdjust="spacing" textLength="100.75" x="878" y="943.1636">[&#27599;&#20010;&#21463;&#24433;&#21709;&#30340;&#27169;&#22359;]</text><polygon fill="#181818" points="1070.5,965.2188,1080.5,969.2188,1070.5,973.2188,1074.5,969.2188" style="stroke:#181818;stroke-width:1.0;"/><line style="stroke:#181818;stroke-width:1.0;" x1="870.5" x2="1076.5" y1="969.2188" y2="969.2188"/><text fill="#000000" font-family="sans-serif" font-size="13" lengthAdjust="spacing" textLength="124" x="877.5" y="964.1528">&#26356;&#26032; enabled_count</text><path d="M1010,984.2188 L1074,984.2188 L1074,991.3516 L1064,1001.3516 L1010,1001.3516 L1010,984.2188 " fill="#EEEEEE" style="stroke:#000000;stroke-width:1.5;"/><rect fill="none" height="90.5313" style="stroke:#000000;stroke-width:1.5;" width="302" x="1010" y="984.2188"/><text fill="#000000" font-family="sans-serif" font-size="13" font-weight="bold" lengthAdjust="spacing" textLength="19" x="1025" y="997.2856">alt</text><text fill="#000000" font-family="sans-serif" font-size="11" font-weight="bold" lengthAdjust="spacing" textLength="133.75" x="1089" y="996.4292">[&#27169;&#22359;&#21551;&#29992;&#29366;&#24577; 0&#8596;1 &#32763;&#36716;]</text><polygon fill="#181818" points="1216.5,1033.6172,1226.5,1037.6172,1216.5,1041.6172,1220.5,1037.6172" style="stroke:#181818;stroke-width:1.0;"/><line style="stroke:#181818;stroke-width:1.0;" x1="1092.5" x2="1222.5" y1="1037.6172" y2="1037.6172"/><text fill="#000000" font-family="sans-serif" font-size="13" lengthAdjust="spacing" textLength="91" x="1099.5" y="1017.4185">&#35302;&#21457;&#27169;&#22359;&#32423;&#20462;&#34917;</text><text fill="#000000" font-family="sans-serif" font-size="13" lengthAdjust="spacing" textLength="87" x="1099.5" y="1032.5513">(NOP5 &#8596; JMP)</text><polygon fill="#181818" points="1103.5,1062.75,1093.5,1066.75,1103.5,1070.75,1099.5,1066.75" style="stroke:#181818;stroke-width:1.0;"/><line style="stroke:#181818;stroke-width:1.0;stroke-dasharray:2.0,2.0;" x1="1097.5" x2="1232.5" y1="1066.75" y2="1066.75"/><text fill="#000000" font-family="sans-serif" font-size="13" lengthAdjust="spacing" textLength="26" x="1109.5" y="1061.6841">&#23436;&#25104;</text><polygon fill="#181818" points="881.5,1098.8828,871.5,1102.8828,881.5,1106.8828,877.5,1102.8828" style="stroke:#181818;stroke-width:1.0;"/><line style="stroke:#181818;stroke-width:1.0;stroke-dasharray:2.0,2.0;" x1="875.5" x2="1086.5" y1="1102.8828" y2="1102.8828"/><text fill="#000000" font-family="sans-serif" font-size="13" lengthAdjust="spacing" textLength="26" x="887.5" y="1097.8169">&#23436;&#25104;</text><polygon fill="#181818" points="523,1135.0156,513,1139.0156,523,1143.0156,519,1139.0156" style="stroke:#181818;stroke-width:1.0;"/><line style="stroke:#181818;stroke-width:1.0;stroke-dasharray:2.0,2.0;" x1="517" x2="864.5" y1="1139.0156" y2="1139.0156"/><text fill="#000000" font-family="sans-serif" font-size="13" lengthAdjust="spacing" textLength="26" x="529" y="1133.9497">&#23436;&#25104;</text><polygon fill="#181818" points="341,1164.1484,331,1168.1484,341,1172.1484,337,1168.1484" style="stroke:#181818;stroke-width:1.0;"/><line style="stroke:#181818;stroke-width:1.0;stroke-dasharray:2.0,2.0;" x1="335" x2="506" y1="1168.1484" y2="1168.1484"/><text fill="#000000" font-family="sans-serif" font-size="13" lengthAdjust="spacing" textLength="26" x="347" y="1163.0825">&#36820;&#22238;</text><polygon fill="#181818" points="33,1200.2813,23,1204.2813,33,1208.2813,29,1204.2813" style="stroke:#181818;stroke-width:1.0;"/><line style="stroke:#181818;stroke-width:1.0;stroke-dasharray:2.0,2.0;" x1="27" x2="324" y1="1204.2813" y2="1204.2813"/><text fill="#000000" font-family="sans-serif" font-size="13" lengthAdjust="spacing" textLength="26" x="39" y="1199.2153">&#23436;&#25104;</text><!--SRC=[fLPhJzjM6FwUNt6KVMYYbAQ5CQreLEeWaRgD5OrMseT8oDW7YEhOcMEwLjiaQBcafH0wGYcbDtg3RLsW6-KIckI_L3d7ph_OUyvn7DkawuScKXBRvttUs_C-RqwWtazuXKuWibxj6kb1zkOqoQ_HzLrwRwT-i4YUFMxC5Hfp2rPfbRwTihRcKOHi7v9o4VrugkjK9uhnxwue8DIF5gtY5itlaxkL-j4Baj-nDr-HmjrwhMHllBGUJ9FI7RgoInStINxFtjycrMaKgHyia3ShvDtaqC2WTJHhtxu1K0piu0Lzj25EzS0rGXr8ocQnfY2xLY6tduf0qVlPt-7ihSRaWyRKCfbSQqpUeiMznleiVoB29_bzo8RxWapi_Rl2jh5SZJh82bRZieeb0v7yqyRQYpWzcB7-A0kCcIst12W2txHOPMb0T5uOMYZOjHthzIlhzXwTdEf1gZw6uiWq91cpREe7Vrhphws_vgsZNL9-1OKRrOsCPA9HLHhBeKXiD1vJux5CF6Ook4_gPYXt9Qrb9KFAe159lZ9cw1EQqgUhke4-IoROstC2FisqdCvAceb-2I7qTT0YqPNiJFQp9xgXOCEvstdcx1V9hj1l7gGS_ca2Qp8U_4J4K4YIJRWJ5dGA8oc7BkUm4GgDwDTGc2w-98NdvCsDC6JJbUXETWEIDukmSbsJCcbvMC4Z4sCfBMleycYEmmp2p-HGYD48i1n0kpP7WQ_lLkZo8iFiItoUw0jYYcOBxd6eyvoDmMCk5wtTPu38JrxG57ojFHwGXn_vOKB5VUDIMWiUyp4uxYEZCCIZ1iwD1yq6BlPV_YunF7Jf_AN443yue2j3fcJYGEvYEA6OY6MUX7gU3cBHhGtoQ5KSJ6aC92r_YwyZUkiGOX7tHN4bKnuFuBjZ8VgL-3BPdJWRzD3F-jIFSxAHpaBZEHYxR66nzgEESqx_K0_2yhYEmXbTWSBrPZ8enWSjZ7v5uLXsLEK_OAhHwJ0ZK_egPDviViW1ySBPcy_fuoKXN2ajXrNC6HX3p5ZNsBIoCGLcgcP08oBCpLTfvHouv1eIFIORa6_BfzCnS6hWZ7uLEyBJniODlDLaJOTBC38yC6qbAQL5L2bdTcHOJpf-JckvaqoHuaAFIE6EaA6KvcI66XjbKYv0h-dyaoXuQk93nAmLu4Si1JyAVJf7Qgkkc0sBAlcicyHh8M1D6b6nCYo399WfxVJxsU8PPDMExCfhNWRlsl1YUHl6Tab-2Pug-5YPGbZDOV-QY8ZT4Jss5Noj4ICDwEBqCEY8CZ8sR0378b5lGvpPXrkE2HZpAGVRjjiefLd_LAsD4lTFIsyzL-pmp09CYDT1Kp84Q8StDaRIWx_TkG9mifJt5q9O-w9p1OQHtLCPu8orNeAzjbmbErLIcx5lFepwBLsYVNoRjk4itEljHOtxUv3rcIQ6_NoApFwBsAf2G2WzY-Xs0JPa83TuwAFIiL3AHROYxks845AQXvjBq_QSit5Fmc3jrIjhWlBrsYDwP-h3q68Se1YDcrjqUQ5UUSW4mUIzQeqgcq4ZhU0G1sAg8FO-4DSgFg75GrAupn-rcoI7wwrenHYbD3AxHcPU1eVfWw7QfHrIMH7wR9KtsTyOK-86OZCv77Nht-alN9lw5rP9vGrPNe1_Qm8sMAUFJBEeHfC3xivnYoH0oT8sk1S5GzxnTv9rdR29PmB65Pg9WfjhSnr5lhyus0qTAQ9l1WQZZdrByVb64ZS5K8S_1rT6sCipGIr3KKblJ7uYjW0yvcxYRW-y8jOQvVyHiTO8-lPKhKZM7_ij737YZffQ1ZPyPRe-lBc9DVWV]--></g></svg>